<svg xmlns="http://www.w3.org/2000/svg" width="348.59" height="70"><path d="M165.85 0c-10.45 0-15.82 6.25-15.82 17.18 0 19.53 21 22.17 21 36.22 0 4.9-2.15 6.64-5.57 6.64-3.42 0-5.57-1.75-5.57-6.64v-4.88h-10.16v4.2c0 10.93 5.47 17.18 16 17.18 10.56 0 16.02-6.25 16.02-17.18 0-19.53-21-22.16-21-36.22 0-4.88 1.97-6.74 5.38-6.74 3.42 0 5.37 1.86 5.37 6.74v2.83h10.17v-2.15C181.67 6.25 176.3 0 165.85 0zM0 .78v68.34h10.74V43.45h5.08c10.74 0 16-5.96 16-16.9v-8.88c0-10.93-5.26-16.9-16-16.9zm36.88 0v52.04C36.88 63.75 42.35 70 52.9 70c10.54 0 16-6.25 16-17.18V.78H58.76V53.5c0 4.88-2.14 6.64-5.56 6.64-3.43 0-5.58-1.76-5.58-6.64V.78zm39.4 0v68.34H87V41.3h3.72c4.88 0 7.03 2.34 7.03 8.7V60.7c0 5.57.4 6.64.98 8.4h10.93c-1.07-2.54-1.17-4.98-1.17-8.3V50.28c0-7.13-1.77-12.3-7.14-14.55 4.8-2.24 7.03-6.83 7.03-13.86V16.5C108.4 5.96 103.6.78 92.47.78zm39.27 0v68.34h29.3v-9.76h-18.56v-20h14.73v-9.78H126.3V10.54h18.54V.78zm72.27 0v68.34h28.4v-9.76h-17.66V.78zm33.18 0v68.34h10.74V.78zm18.5 0v68.34h16.98c10.74 0 16-5.95 16-16.9V17.68c0-10.93-5.26-16.9-16-16.9zm39.85 0v68.34h29.3v-9.76h-18.56v-20h14.73v-9.78H290.1V10.54h18.54V.78zm35.85 0v68.34h10.74V41.3h3.7c4.9 0 7.04 2.34 7.04 8.7V60.7c0 5.57.38 6.64.97 8.4h10.94c-1.1-2.54-1.2-4.98-1.2-8.3V50.28c0-7.13-1.74-12.3-7.1-14.55 4.77-2.24 7.02-6.83 7.02-13.86V16.5c0-10.54-4.8-15.72-15.92-15.72zM2 2.78h13.82c5 0 8.35 1.33 10.56 3.7 2.22 2.4 3.45 6.05 3.45 11.2v8.88c0 5.14-1.23 8.8-3.45 11.18-2.2 2.38-5.56 3.7-10.56 3.7H8.74v25.68H2zm36.88 0h6.74V53.5c0 2.74.6 4.95 2.03 6.5 1.43 1.55 3.5 2.14 5.54 2.14s4.1-.6 5.53-2.14c1.42-1.55 2.02-3.76 2.02-6.5V2.78h6.16v50.04c0 5.13-1.26 8.88-3.52 11.34C61.13 66.62 57.78 68 52.9 68c-4.88 0-8.23-1.38-10.5-3.84-2.24-2.46-3.52-6.2-3.52-11.34zm39.4 0h14.2c5.25 0 8.6 1.2 10.7 3.3 2.1 2.13 3.2 5.45 3.2 10.42v5.37c0 6.6-1.8 10.15-5.87 12.05l-4.07 1.92 4.16 1.74c2.24.94 3.58 2.34 4.52 4.42.93 2.08 1.37 4.88 1.37 8.28v10.54c0 2.3.18 4.32.6 6.3h-6.84c-.3-1.12-.5-2.42-.5-6.4V50c0-3.4-.54-6.08-2.15-8.02-1.6-1.93-4.12-2.68-6.88-2.68h-5.7v27.82h-6.75zm39.27 0h25.3v5.76h-18.56v23.04h14.73v5.77H124.3v24h18.54v5.77h-25.3zM8.75 8.54v27.14h7.07c2 0 4.04-.52 5.4-2.06 1.38-1.54 1.87-3.7 1.87-6.38V17c0-2.7-.5-4.85-1.87-6.4-1.37-1.53-3.4-2.06-5.4-2.06zm76.26 0v25h6.2c2.3 0 4.55-.54 6.15-2.16 1.6-1.63 2.3-4.04 2.3-7.07v-6.73c0-2.66-.4-4.88-1.72-6.57-1.32-1.7-3.46-2.46-5.74-2.46zm-74.26 2h5.08c3.4 0 5.27 1.57 5.27 6.45v10.24c0 4.88-1.87 6.44-5.28 6.44h-5.08zm76.27 0h5.2c3.8 0 5.45 2.15 5.45 7.03v6.74c0 5.48-2.44 7.24-6.44 7.24H87zm163.24 0h6.05c3.4 0 5.46 1.76 5.46 6.64v35.54c0 4.88-2.05 6.64-5.47 6.64h-6.06zm75.7 0h5.17c3.82 0 5.48 2.15 5.48 7.03v6.74c0 5.48-2.44 7.24-6.45 7.24h-4.2z" color="#000" overflow="visible" solid-color="#000000"/></svg>