<?xml version="1.0" encoding="UTF-8" standalone="no"?>
<svg
   xmlns:dc="http://purl.org/dc/elements/1.1/"
   xmlns:cc="http://creativecommons.org/ns#"
   xmlns:rdf="http://www.w3.org/1999/02/22-rdf-syntax-ns#"
   xmlns:svg="http://www.w3.org/2000/svg"
   xmlns="http://www.w3.org/2000/svg"
   version="1.1"
   id="svg2"
   viewBox="0 0 348.58591 70.000038"
   height="70.000038"
   width="348.58591">
  <defs
     id="defs4" />
  <metadata
     id="metadata7">
    <rdf:RDF>
      <cc:Work
         rdf:about="">
        <dc:format>image/svg+xml</dc:format>
        <dc:type
           rdf:resource="http://purl.org/dc/dcmitype/StillImage" />
        <dc:title></dc:title>
      </cc:Work>
    </rdf:RDF>
  </metadata>
  <g
     transform="translate(0,-982.36216)"
     id="layer1">
    <path
       id="path4480"
       d="m 165.8496,982.36216 c -10.4463,0 -15.8164,6.24916 -15.8164,17.18359 0,19.52575 20.9922,22.16215 20.9922,36.22075 0,4.8814 -2.1494,6.6386 -5.5664,6.6386 -3.417,0 -5.5645,-1.7572 -5.5645,-6.6386 v -4.8829 h -10.1543 v 4.1973 c 0,10.9344 5.4678,17.1836 16.0117,17.1836 10.544,0 16.0118,-6.2492 16.0118,-17.1836 0,-19.5258 -20.9903,-22.1602 -20.9903,-36.21874 0,-4.88145 1.9522,-6.73633 5.3692,-6.73633 3.417,0 5.3691,1.85488 5.3691,6.73633 v 2.83004 h 10.1543 v -2.14645 c 0,-10.93443 -5.3701,-17.18359 -15.8164,-17.18359 z M 0,983.1434 v 68.3399 h 10.7402 v -25.6758 h 5.0762 c 10.7392,0 16.0098,-5.9543 16.0098,-16.8887 v -8.8848 c 0,-10.9344 -5.2706,-16.89059 -16.0098,-16.8906 z m 36.8848,0 v 52.0371 c 0,10.9345 5.4678,17.1816 16.0117,17.1817 10.5439,0 16.0117,-6.2472 16.0117,-17.1817 V 983.1434 H 58.7539 v 52.7188 c 0,4.8814 -2.1474,6.6406 -5.5645,6.6406 -3.417,0 -5.5644,-1.7592 -5.5644,-6.6406 v -52.7188 z m 39.3886,0 v 68.3399 h 10.7383 v -27.8223 h 3.711 c 4.8814,0 7.0292,2.3416 7.0292,8.6875 v 10.7383 c 0,5.5648 0.3909,6.6391 0.9766,8.3965 h 10.9336 c -1.0739,-2.5384 -1.1719,-4.9775 -1.1719,-8.2969 v -10.5449 c 0,-7.127 -1.7573,-12.3014 -7.1269,-14.5469 4.7838,-2.2455 7.0293,-6.834 7.0293,-13.8633 v -5.36914 c 0,-10.54393 -4.7844,-15.71875 -15.9141,-15.71876 z m 39.2793,0 v 68.3399 h 29.2891 v -9.7618 H 126.291 v -20.0136 h 14.7422 v -9.7637 H 126.291 v -19.03712 h 18.5508 v -9.76368 z m 72.2696,0 v 68.3399 h 28.4101 v -9.7618 h -17.6718 v -58.5781 z m 33.1777,0 v 68.3399 h 10.7383 v -68.3399 z m 18.4961,0 v 68.3399 h 16.9863 c 10.7392,0 16.0117,-5.9543 16.0117,-16.8887 v -34.5606 c 0,-10.9344 -5.2725,-16.8906 -16.0117,-16.8906 z m 39.8535,0 v 68.3399 h 29.2871 v -9.7618 h -18.5488 v -20.0136 h 14.7422 v -9.7637 h -14.7422 v -19.03712 h 18.5488 v -9.76368 z m 35.8457,0 v 68.3399 h 10.7403 v -27.8223 h 3.7109 c 4.8814,0 7.0293,2.3416 7.0293,8.6875 v 10.7383 c 0,5.5648 0.3888,6.6391 0.9746,8.3965 h 10.9355 c -1.0739,-2.5384 -1.1718,-4.9775 -1.1718,-8.2969 v -10.5449 c 0,-7.127 -1.7574,-12.3014 -7.127,-14.5469 4.7838,-2.2455 7.0293,-6.834 7.0293,-13.8633 v -5.36914 c 0,-10.54393 -4.7844,-15.71876 -15.9141,-15.71876 z M 2,985.1434 h 13.8164 c 4.9999,0 8.3538,1.33161 10.5684,3.70899 2.2146,2.37737 3.4414,6.03582 3.4414,11.18161 v 8.8848 c 0,5.1458 -1.2269,8.8045 -3.4414,11.1816 -2.2146,2.3772 -5.5685,3.7071 -10.5684,3.7071 H 8.7402 v 25.6777 H 2 Z m 36.8848,0 h 6.7402 v 50.7207 c 0,2.734 0.6032,4.9511 2.0273,6.502 1.4242,1.5509 3.4856,2.1367 5.5371,2.1367 2.0516,0 4.1127,-0.586 5.5372,-2.1367 1.4244,-1.5508 2.0273,-3.7679 2.0273,-6.502 v -50.7207 h 6.1543 v 50.0371 c 0,5.1339 -1.2722,8.8798 -3.5273,11.3399 -2.2552,2.46 -5.6075,3.8417 -10.4844,3.8418 -4.8769,0 -8.2314,-1.3818 -10.4863,-3.8418 -2.255,-2.4601 -3.5254,-6.206 -3.5254,-11.3399 z m 39.3886,0 h 14.2051 c 5.2549,0 8.611,1.19458 10.709,3.3125 2.098,2.11794 3.2051,5.43671 3.2051,10.40626 v 5.36914 c 0,6.6035 -1.826,10.1523 -5.8789,12.0547 l -4.0821,1.916 4.1602,1.7383 c 2.252,0.9417 3.5898,2.3427 4.5254,4.4199 0.9356,2.0772 1.373,4.8821 1.373,8.2813 v 10.5449 c 0,2.2919 0.1928,4.3119 0.6133,6.2988 h -6.8398 c -0.3083,-1.1274 -0.5118,-2.4225 -0.5118,-6.3965 v -10.7383 c 0,-3.3985 -0.5351,-6.0669 -2.1464,-8.0039 -1.6113,-1.9369 -4.1221,-2.6855 -6.8828,-2.6855 h -5.711 v 27.8242 h -6.7383 z m 39.2793,0 h 25.2891 v 5.76368 H 124.291 v 23.03712 h 14.7422 v 5.7637 H 124.291 v 24.0136 h 18.5508 v 5.7637 H 117.5527 Z M 8.7402,990.90708 v 2 25.13872 h 7.0762 c 2.0132,0 4.0396,-0.5233 5.4102,-2.0625 1.3705,-1.5393 1.8613,-3.6868 1.8613,-6.3809 v -10.25196 c 0,-2.69406 -0.4909,-4.84135 -1.8613,-6.38086 -1.3704,-1.5395 -3.3968,-2.0625 -5.4102,-2.0625 z m 76.2715,0 v 2 22.99022 h 6.1973 c 2.2941,0 4.5373,-0.5314 6.1445,-2.1562 1.6072,-1.6248 2.3008,-4.0371 2.3008,-7.0684 v -6.73633 c 0,-2.66743 -0.4132,-4.88123 -1.7266,-6.57226 -1.3133,-1.69104 -3.4623,-2.45703 -5.7421,-2.45703 z m -74.2715,2 h 5.0762 c 3.417,0 5.2715,1.56192 5.2715,6.44336 v 10.24996 c 0,4.8815 -1.8545,6.4434 -5.2715,6.4434 h -5.0762 z m 76.2715,0 h 5.1739 c 3.8075,0 5.4687,2.14785 5.4687,7.02929 v 6.73633 c 0,5.4672 -2.4425,7.2246 -6.4453,7.2246 h -4.1973 z m 163.2246,0 h 6.0528 c 3.417,0 5.4668,1.75723 5.4668,6.63867 v 35.53515 c 0,4.8815 -2.0498,6.6406 -5.4668,6.6406 h -6.0528 z m 75.6993,0 h 5.1738 c 3.8075,0 5.4687,2.14785 5.4687,7.02929 v 6.73633 c 0,5.4672 -2.4425,7.2246 -6.4453,7.2246 h -4.1972 z"
       style="color:#000000;clip-rule:nonzero;display:inline;overflow:visible;solid-color:#000000;solid-opacity:1;vector-effect:none;fill:#000000;fill-opacity:1;fill-rule:nonzero;stroke:none;stroke-width:4;stroke-linecap:butt;stroke-linejoin:miter;stroke-miterlimit:4;stroke-dasharray:none;stroke-dashoffset:0;stroke-opacity:1;color-rendering:auto;image-rendering:auto;shape-rendering:auto;text-rendering:auto;enable-background:accumulate" />
  </g>
</svg>
